<svg xmlns="http://www.w3.org/2000/svg" viewBox="0 0 72 32.57"><defs><clipPath id="a"><path fill="none" d="M0 0h72v32.57H0z"></path></clipPath><clipPath id="b"><path fill="#ff9900" d="M0 0h72v32.57H0z"></path></clipPath></defs><g clip-path="url(#a)"><path d="M72 32.45V18.47h-2.73v8.56l-5.54-8.56H61.3v13.98h2.73v-8.58l5.54 8.58H72zm-14.45-5.73v-2.04h-5.28v2.28h2.57v.53c0 .73-.18 1.35-.63 1.86-.45.49-1.12.79-1.94.79-.75 0-1.35-.27-1.75-.73-.53-.59-.67-1.26-.67-3.95s.14-3.34.67-3.92c.39-.45 1-.75 1.75-.75 1.39 0 2.2.73 2.51 2.04h2.75c-.37-2.36-2.02-4.47-5.26-4.47-1.57 0-2.79.55-3.77 1.53-1.41 1.41-1.38 3.16-1.38 5.57s-.04 4.16 1.38 5.58c.98.98 2.24 1.53 3.77 1.53s2.83-.43 3.94-1.59c.99-1.02 1.34-2.24 1.34-4.26m-14.47-8.25h-2.73v13.98h2.73V18.47zm-6.42 9.85c0-1.24-.33-2.26-1.08-2.96-.59-.55-1.4-.9-2.67-1.08l-1.65-.24c-.57-.08-1.02-.3-1.3-.55-.29-.27-.41-.64-.41-1 0-.96.71-1.77 2.16-1.77.92 0 1.98.12 2.87.96l1.73-1.71c-1.2-1.16-2.59-1.63-4.52-1.63-3.02 0-4.87 1.74-4.87 4.24 0 1.18.33 2.08 1 2.75.63.61 1.51.98 2.71 1.16l1.69.23c.65.1.96.24 1.24.49.29.28.43.69.43 1.18 0 1.12-.86 1.73-2.47 1.73-1.3 0-2.5-.29-3.38-1.18l-1.77 1.77c1.37 1.39 2.98 1.84 5.1 1.84 2.92 0 5.18-1.53 5.18-4.24m-13.53 4.12V30h-5.49v-3.4h5.52v-2.43h-5.52v-3.28h5.49v-2.43h-8.2v13.98h8.22zM8.27 25.39c0 2.12-.08 3.12-.59 3.75-.47.57-1.1.86-2.04.86H3.6v-9.11h2.06c.94 0 1.57.3 2.04.86.51.63.59 1.51.59 3.63m2.73 0c0-2.1.16-4.02-1.41-5.59-.92-.92-2.24-1.34-3.69-1.34H.87v13.98h5.04c1.45 0 2.77-.41 3.69-1.33 1.57-1.57 1.41-3.61 1.41-5.71" fill="#ff9900"></path></g><g clip-path="url(#b)"><path d="M68.58 4.4c0 1.08-.79 1.85-1.98 1.85h-2.57v-3.7h2.57c1.2 0 1.98.77 1.98 1.84m3.3 9.7l-3.12-6.03c1.35-.49 2.55-1.71 2.55-3.67 0-2.34-1.68-4.28-4.53-4.28H61.3V14.1h2.73V8.52h1.96l2.73 5.58h3.16zM54.76 7.1c0 2.69-.16 3.34-.69 3.93-.39.45-1 .75-1.75.75s-1.37-.3-1.77-.75c-.53-.59-.67-1.24-.67-3.93s.14-3.34.67-3.93c.39-.45 1.02-.74 1.77-.74s1.35.29 1.75.74c.53.59.69 1.24.69 3.93m2.73 0c0-2.41.02-4.16-1.4-5.58-.98-.98-2.18-1.53-3.77-1.53s-2.81.55-3.79 1.53c-1.41 1.41-1.38 3.16-1.38 5.58s-.04 4.16 1.38 5.58c.98.98 2.2 1.53 3.79 1.53s2.79-.55 3.77-1.53c1.41-1.41 1.39-3.16 1.39-5.57M45.35 14.1v-2.43h-5.24V.12h-2.73V14.1h7.97zM34.49.12h-2.96l-2.57 5.63L26.34.12h-2.97l4.2 8.25v5.73h2.71V8.37L34.49.12zm-15.7 9.21h-3.48l1.77-5.08 1.71 5.08zm4.4 4.77L18.09.12h-2.14L10.87 14.1h2.85l.84-2.47h4.97l.82 2.47h2.85zM10.03 2.55V.12H0v2.43h3.65V14.1h2.73V2.55h3.65z" fill="#ff9900"></path></g></svg>